<svg width="24" height="24" viewBox="0 0 24 24" fill="none" xmlns="http://www.w3.org/2000/svg">
  <path d="M2 6C2 4.89543 2.89543 4 4 4H12.5858C13.1193 4 13.6321 4.21071 14.0002 4.58579L21.4142 12C22.1953 12.781 22.1953 14.047 21.4142 14.828L14.828 21.4142C14.047 22.1953 12.781 22.1953 12 21.4142L4.58579 14C4.21071 13.6321 4 13.1193 4 12.5858V4C4 2.89543 3.10457 2 2 2ZM6 6.75C6 7.16421 6.33579 7.5 6.75 7.5H7.25C7.66421 7.5 8 7.16421 8 6.75V6.25C8 5.83579 7.66421 5.5 7.25 5.5H6.75C6.33579 5.5 6 5.83579 6 6.25V6.75Z" fill="#757575"/>
</svg>
